<svg id="visual" viewBox="0 0 1600 900" width="1600" height="900" xmlns="http://www.w3.org/2000/svg" xmlns:xlink="http://www.w3.org/1999/xlink" version="1.1"><path d="M0 136L24.2 125.5C48.3 115 96.7 94 145.2 83.5C193.7 73 242.3 73 290.8 85C339.3 97 387.7 121 436.2 130C484.7 139 533.3 133 581.8 118C630.3 103 678.7 79 727.2 70C775.7 61 824.3 67 872.8 77.5C921.3 88 969.7 103 1018.2 104.5C1066.7 106 1115.3 94 1163.8 89.5C1212.3 85 1260.7 88 1309.2 91C1357.7 94 1406.3 97 1454.8 103C1503.3 109 1551.7 118 1575.8 122.5L1600 127L1600 0L1575.8 0C1551.7 0 1503.3 0 1454.8 0C1406.3 0 1357.7 0 1309.2 0C1260.7 0 1212.3 0 1163.8 0C1115.3 0 1066.7 0 1018.2 0C969.7 0 921.3 0 872.8 0C824.3 0 775.7 0 727.2 0C678.7 0 630.3 0 581.8 0C533.3 0 484.7 0 436.2 0C387.7 0 339.3 0 290.8 0C242.3 0 193.7 0 145.2 0C96.7 0 48.3 0 24.2 0L0 0Z" fill="#abdfda"></path><path d="M0 532L24.2 506.5C48.3 481 96.7 430 145.2 383.5C193.7 337 242.3 295 290.8 290.5C339.3 286 387.7 319 436.2 347.5C484.7 376 533.3 400 581.8 404.5C630.3 409 678.7 394 727.2 391C775.7 388 824.3 397 872.8 395.5C921.3 394 969.7 382 1018.2 374.5C1066.7 367 1115.3 364 1163.8 355C1212.3 346 1260.7 331 1309.2 311.5C1357.7 292 1406.3 268 1454.8 265C1503.3 262 1551.7 280 1575.8 289L1600 298L1600 125L1575.8 120.5C1551.7 116 1503.3 107 1454.8 101C1406.3 95 1357.7 92 1309.2 89C1260.7 86 1212.3 83 1163.8 87.5C1115.3 92 1066.7 104 1018.2 102.5C969.7 101 921.3 86 872.8 75.5C824.3 65 775.7 59 727.2 68C678.7 77 630.3 101 581.8 116C533.3 131 484.7 137 436.2 128C387.7 119 339.3 95 290.8 83C242.3 71 193.7 71 145.2 81.5C96.7 92 48.3 113 24.2 123.5L0 134Z" fill="#c4e9e6"></path><path d="M0 640L24.2 632.5C48.3 625 96.7 610 145.2 583C193.7 556 242.3 517 290.8 509.5C339.3 502 387.7 526 436.2 542.5C484.7 559 533.3 568 581.8 583C630.3 598 678.7 619 727.2 622C775.7 625 824.3 610 872.8 583C921.3 556 969.7 517 1018.2 497.5C1066.7 478 1115.3 478 1163.8 488.5C1212.3 499 1260.7 520 1309.2 509.5C1357.7 499 1406.3 457 1454.8 454C1503.3 451 1551.7 487 1575.8 505L1600 523L1600 296L1575.8 287C1551.7 278 1503.3 260 1454.8 263C1406.3 266 1357.7 290 1309.2 309.5C1260.7 329 1212.3 344 1163.8 353C1115.3 362 1066.7 365 1018.2 372.5C969.7 380 921.3 392 872.8 393.5C824.3 395 775.7 386 727.2 389C678.7 392 630.3 407 581.8 402.5C533.3 398 484.7 374 436.2 345.5C387.7 317 339.3 284 290.8 288.5C242.3 293 193.7 335 145.2 381.5C96.7 428 48.3 479 24.2 504.5L0 530Z" fill="#d3efed"></path><path d="M0 730L24.2 730C48.3 730 96.7 730 145.2 718C193.7 706 242.3 682 290.8 679C339.3 676 387.7 694 436.2 697C484.7 700 533.3 688 581.8 692.5C630.3 697 678.7 718 727.2 722.5C775.7 727 824.3 715 872.8 695.5C921.3 676 969.7 649 1018.2 623.5C1066.7 598 1115.3 574 1163.8 580C1212.3 586 1260.7 622 1309.2 625C1357.7 628 1406.3 598 1454.8 589C1503.3 580 1551.7 592 1575.8 598L1600 604L1600 521L1575.8 503C1551.7 485 1503.3 449 1454.8 452C1406.3 455 1357.7 497 1309.2 507.5C1260.7 518 1212.3 497 1163.8 486.5C1115.3 476 1066.7 476 1018.2 495.5C969.7 515 921.3 554 872.8 581C824.3 608 775.7 623 727.2 620C678.7 617 630.3 596 581.8 581C533.3 566 484.7 557 436.2 540.5C387.7 524 339.3 500 290.8 507.5C242.3 515 193.7 554 145.2 581C96.7 608 48.3 623 24.2 630.5L0 638Z" fill="#c4e9e6"></path><path d="M0 901L24.2 901C48.3 901 96.7 901 145.2 901C193.7 901 242.3 901 290.8 901C339.3 901 387.7 901 436.2 901C484.7 901 533.3 901 581.8 901C630.3 901 678.7 901 727.2 901C775.7 901 824.3 901 872.8 901C921.3 901 969.7 901 1018.2 901C1066.7 901 1115.3 901 1163.8 901C1212.3 901 1260.7 901 1309.2 901C1357.7 901 1406.3 901 1454.8 901C1503.3 901 1551.7 901 1575.8 901L1600 901L1600 602L1575.8 596C1551.7 590 1503.3 578 1454.8 587C1406.3 596 1357.7 626 1309.2 623C1260.7 620 1212.3 584 1163.8 578C1115.3 572 1066.7 596 1018.2 621.5C969.7 647 921.3 674 872.8 693.5C824.3 713 775.7 725 727.2 720.5C678.7 716 630.3 695 581.8 690.5C533.3 686 484.7 698 436.2 695C387.7 692 339.3 674 290.8 677C242.3 680 193.7 704 145.2 716C96.7 728 48.3 728 24.2 728L0 728Z" fill="#abdfda"></path></svg>